<svg width="24" height="24" viewBox="0 0 24 24" fill="none" xmlns="http://www.w3.org/2000/svg">
<path fill-rule="evenodd" clip-rule="evenodd" d="M9.5012 3.99902L3.83261 8.5339C2.70105 9.43914 2.14758 10.8856 2.38581 12.315L3.44292 18.6576C3.76438 20.5863 5.43314 22 7.38849 22H16.6115C18.5668 22 20.2356 20.5863 20.5571 18.6576L21.6142 12.315C21.8524 10.8856 21.2989 9.43914 20.1674 8.5339L14.4988 3.99902C13.0379 2.83032 10.9621 2.83032 9.5012 3.99902ZM10.9398 15.8455L10.2148 16.8604C9.59927 17.7222 10.2153 18.9192 11.2743 18.9192H12.7243C13.7833 18.9192 14.3993 17.7222 13.7838 16.8604L13.0588 15.8455C12.5395 15.1185 11.4591 15.1185 10.9398 15.8455Z" fill="#363538"/>
</svg>
