<svg width="174" height="46" viewBox="0 0 174 46" fill="none" xmlns="http://www.w3.org/2000/svg">
<path fill-rule="evenodd" clip-rule="evenodd" d="M18.0251 1.85004C16.2585 1.28333 14.1667 1 11.75 1H0V37.15H6.7251V24.425H11.75C14.1001 24.425 16.1501 24.1334 17.9001 23.55C19.6667 22.9667 21.1335 22.15 22.3 21.1C23.4668 20.05 24.3418 18.8 24.925 17.35C25.5085 15.8834 25.8 14.275 25.8 12.525C25.8 10.8417 25.5168 9.29169 24.9502 7.875C24.4001 6.45837 23.55 5.2417 22.4001 4.22504C21.25 3.20837 19.7917 2.41669 18.0251 1.85004ZM14.9751 18.725C14.0583 19.025 12.9834 19.175 11.75 19.175H6.7251V6.20001H11.75C13 6.20001 14.0835 6.35004 15 6.65002C15.9167 6.93335 16.675 7.35004 17.2751 7.90002C17.875 8.45001 18.3252 9.1167 18.625 9.90002C18.925 10.6833 19.0752 11.5583 19.0752 12.525C19.0752 13.5417 18.925 14.4667 18.625 15.3C18.3252 16.1167 17.8667 16.8167 17.25 17.4C16.6501 17.9667 15.8918 18.4084 14.9751 18.725Z" fill="#FFB238"/>
<path fill-rule="evenodd" clip-rule="evenodd" d="M87.3157 37.15V0H81.1406V13.525C80.3408 12.7584 79.4324 12.15 78.4158 11.7C77.3992 11.25 76.1741 11.025 74.7407 11.025C73.0574 11.025 71.5408 11.3667 70.1907 12.05C68.8408 12.7167 67.6824 13.65 66.7158 14.85C65.749 16.05 65.0073 17.4667 64.4907 19.1C63.9741 20.7333 63.7158 22.5 63.7158 24.4C63.7158 26.5 63.9407 28.3667 64.3906 30C64.8574 31.6334 65.5073 33.0084 66.3408 34.125C67.1907 35.225 68.199 36.0667 69.3657 36.65C70.5325 37.2333 71.8157 37.525 73.2158 37.525C74.999 37.525 76.5574 37.1584 77.8906 36.425C79.2407 35.6917 80.4324 34.7333 81.4658 33.55L81.9907 36.025C82.2073 36.775 82.7241 37.15 83.5408 37.15H87.3157ZM78.8408 16.25C79.6741 16.6 80.4407 17.2 81.1406 18.05V29.55C80.3408 30.5334 79.4907 31.2917 78.5908 31.825C77.6907 32.3583 76.5991 32.625 75.3157 32.625C74.5156 32.625 73.7908 32.4833 73.1406 32.2C72.4907 31.9 71.9407 31.425 71.4907 30.775C71.0408 30.1083 70.6907 29.2584 70.4407 28.225C70.2073 27.175 70.0908 25.9 70.0908 24.4C70.0908 22.9167 70.2324 21.6334 70.5156 20.55C70.7991 19.45 71.2073 18.55 71.7407 17.85C72.2742 17.1334 72.9158 16.6 73.6658 16.25C74.4158 15.9 75.2573 15.725 76.1907 15.725C77.1406 15.725 78.0242 15.9 78.8408 16.25Z" fill="#FFB238"/>
<path d="M106.36 37.15L116.535 11.5H111.66C111.243 11.5 110.885 11.6083 110.585 11.825C110.285 12.0417 110.076 12.3167 109.96 12.65L104.91 26.35C104.626 27.15 104.385 27.9333 104.185 28.7C103.985 29.4667 103.802 30.2333 103.635 31C103.485 30.2333 103.31 29.4667 103.11 28.7C102.91 27.9333 102.677 27.15 102.41 26.35L97.46 12.65C97.3599 12.3167 97.1516 12.0417 96.835 11.825C96.5349 11.6083 96.1516 11.5 95.6848 11.5H90.585L100.76 37.15H106.36Z" fill="#FFB238"/>
<path d="M126.226 37.15V11.5H120.026V37.15H126.226Z" fill="#FFB238"/>
<path d="M126.751 5.52502C126.968 5.05835 127.076 4.55835 127.076 4.02502C127.076 3.47504 126.968 2.95837 126.751 2.47504C126.534 1.9917 126.242 1.57501 125.876 1.22504C125.526 0.875 125.109 0.600037 124.626 0.400024C124.143 0.18335 123.626 0.0750122 123.076 0.0750122C122.542 0.0750122 122.034 0.18335 121.551 0.400024C121.084 0.600037 120.676 0.875 120.326 1.22504C119.976 1.57501 119.693 1.9917 119.476 2.47504C119.276 2.95837 119.176 3.47504 119.176 4.02502C119.176 4.55835 119.276 5.05835 119.476 5.52502C119.693 5.9917 119.976 6.40002 120.326 6.75C120.676 7.10004 121.084 7.38336 121.551 7.60004C122.034 7.80005 122.542 7.90002 123.076 7.90002C123.626 7.90002 124.143 7.80005 124.626 7.60004C125.109 7.38336 125.526 7.10004 125.876 6.75C126.242 6.40002 126.534 5.9917 126.751 5.52502Z" fill="#FFB238"/>
<path d="M134.321 16.15V37.15H140.496V16.125H146.971V11.725H140.296V10.025C140.296 9.07501 140.396 8.28339 140.596 7.65002C140.813 7 141.121 6.48334 141.521 6.10004C141.921 5.70001 142.405 5.42505 142.971 5.27502C143.554 5.10834 144.213 5.02502 144.946 5.02502C145.229 5.02502 145.496 5.01666 145.746 5C145.996 4.96667 146.213 4.91669 146.396 4.85004C146.596 4.76666 146.755 4.65839 146.871 4.52502C146.988 4.375 147.054 4.18335 147.071 3.95001L147.196 0.850037C146.179 0.533386 145.08 0.375 143.896 0.375C142.413 0.375 141.08 0.591675 139.896 1.02502C138.713 1.45837 137.705 2.08337 136.871 2.90002C136.054 3.71667 135.421 4.70837 134.971 5.875C134.538 7.04169 134.321 8.35834 134.321 9.82501V11.725H130.496V14.25C130.496 14.7 130.638 15.05 130.921 15.3C131.221 15.5334 131.613 15.7 132.096 15.8L134.321 16.15Z" fill="#FFB238"/>
<path d="M159.766 44.2L173.741 11.5H168.791C168.408 11.5 168.058 11.6083 167.741 11.825C167.441 12.0417 167.224 12.3167 167.091 12.65L161.941 25.925C161.758 26.375 161.591 26.8334 161.441 27.3C161.291 27.75 161.141 28.2084 160.991 28.675C160.919 28.3851 160.843 28.0983 160.764 27.8147C160.716 27.642 160.667 27.4704 160.616 27.3C160.56 27.0818 160.495 26.8636 160.423 26.6454C160.346 26.4136 160.26 26.1818 160.166 25.95L154.716 12.65C154.583 12.35 154.375 12.0834 154.091 11.85C153.824 11.6167 153.449 11.5 152.966 11.5H147.541L157.916 35.225L153.116 45.525H157.716C158.316 45.525 158.758 45.4084 159.041 45.175C159.341 44.9584 159.583 44.6334 159.766 44.2Z" fill="#FFB238"/>
<path d="M42.9751 18.025C38.2505 18.025 34.4331 21.3337 33.4878 25.7952C33.5496 25.7901 33.6121 25.7875 33.675 25.7875H34.125C35.3677 25.7875 36.375 26.7949 36.375 28.0375V35.3125C36.375 36.5552 35.3677 37.5625 34.125 37.5625H33.675C32.5339 37.5625 31.5913 36.713 31.4448 35.6119C30.3252 35.589 29.1914 34.8721 28.5752 33.925C28.0608 33.1347 27.9751 32.1962 27.9751 31.2625C27.9751 30.3976 28.0913 29.4981 28.5376 28.7875C29.145 27.82 30.2407 27.1688 31.4148 27.1386C31.8198 21.0212 36.7048 16.15 42.9751 16.15C49.2197 16.15 54.0906 20.9815 54.5303 27.0637C55.6416 27.0967 56.7632 27.8099 57.375 28.75C57.8894 29.5403 57.9751 30.4788 57.9751 31.4125C57.9751 32.2775 57.8589 33.1769 57.4126 33.8875C56.8015 34.8609 55.6963 35.5141 54.5142 35.5369C54.4014 36.6742 53.4419 37.5625 52.2751 37.5625H51.8252C50.5825 37.5625 49.5752 36.5552 49.5752 35.3125V28.0375C49.5752 26.7949 50.5825 25.7875 51.8252 25.7875H52.2751C52.3381 25.7875 52.4006 25.7901 52.4624 25.7952C51.5168 21.3337 47.6997 18.025 42.9751 18.025Z" fill="#FFB238"/>
<path d="M46.5977 31.8549C47.0293 32.0787 47.0293 32.6964 46.5977 32.9202L40.2324 36.2201C39.833 36.4272 39.3564 36.1373 39.3564 35.6874V29.0876C39.3564 28.6377 39.833 28.3479 40.2324 28.5549L46.5977 31.8549Z" fill="#FFB238"/>
</svg>
