<svg width="24" height="24" viewBox="0 0 24 24" fill="none" xmlns="http://www.w3.org/2000/svg">
<circle cx="12" cy="12" r="11.25" stroke="#FAFFFF" stroke-width="1.5"/>
<path d="M15.336 9.302H13.158C13.41 9.446 13.604 9.62 13.74 9.824C13.876 10.024 13.966 10.25 14.01 10.502H15.336V11.42H13.998C13.914 11.836 13.716 12.2 13.404 12.512C13.096 12.824 12.688 13.054 12.18 13.202C12.372 13.302 12.534 13.45 12.666 13.646L15.09 17H13.95C13.726 17 13.558 16.91 13.446 16.73L11.322 13.742C11.254 13.642 11.18 13.572 11.1 13.532C11.02 13.488 10.898 13.466 10.734 13.466H9.696V12.584H10.842C11.378 12.584 11.806 12.478 12.126 12.266C12.45 12.05 12.664 11.768 12.768 11.42H9.684V10.502H12.798C12.714 10.13 12.512 9.844 12.192 9.644C11.876 9.44 11.44 9.338 10.884 9.338H9.696V8.384H15.336V9.302Z" fill="#FAFFFF"/>
</svg>
